<svg width="166" height="51" viewBox="0 0 166 51" fill="none" xmlns="http://www.w3.org/2000/svg">
<path fill-rule="evenodd" clip-rule="evenodd" d="M60.7974 47.4744C70.0036 47.4744 74.3359 43.8541 74.3359 37.8229V27.5746C74.3359 21.5511 69.9956 17.9308 60.7974 17.9308C51.5991 17.9308 47.2588 21.5434 47.2588 27.5746V37.8229C47.2588 43.8541 51.5911 47.4744 60.7974 47.4744ZM60.7655 23.1326C65.95 23.1326 67.0171 25.0551 67.0171 28.3963V37.0012C67.0171 40.3501 65.95 42.2649 60.7655 42.2649C55.581 42.2649 54.5139 40.3424 54.5139 37.0012V28.3963C54.5139 25.0551 55.581 23.1326 60.7655 23.1326Z" fill="#4D4D4F"/>
<path d="M94.8907 30.9157C103.285 33.8228 103.563 40.4509 106.996 46.4821C105.627 46.8166 104.235 47.055 102.831 47.1953C95.0579 47.1953 99.454 35.7918 87.8507 33.9313V47.1953C87.8507 47.1953 80.5319 47.1953 80.5319 43.6293V4.93042C80.5319 4.93042 87.8507 4.93042 87.8507 8.49642V28.4505C91.1716 27.9544 93.0351 25.5435 95.5676 20.8844C96.6348 18.9076 98.7532 18.2022 100.975 18.2022C102.329 18.2267 103.671 18.4489 104.957 18.8611C101.875 22.9697 99.9637 28.9467 94.8907 30.9157Z" fill="#4D4D4F"/>
<path fill-rule="evenodd" clip-rule="evenodd" d="M121.299 23.2411C125.631 23.2411 126.762 24.9931 126.762 26.9699C125.891 28.6089 123.19 29.2432 120.168 29.9529C115.199 31.1194 109.364 32.4896 109.369 38.8617C109.369 45.3813 115.055 47.4667 120.853 47.4667C122.509 47.4667 124.06 47.2043 125.56 46.9505C126.967 46.7126 128.329 46.4821 129.693 46.4821C131.188 46.4343 132.673 46.7346 134.025 47.3581V27.2955C134.025 21.3186 129.629 17.9231 121.355 17.9231C116.735 17.9231 110.149 19.3572 110.149 24.1248C110.149 25.6055 110.659 27.3032 112.292 29.4428C112.292 24.8303 116.568 23.2411 121.299 23.2411ZM122.412 34.6643C124.453 34.2137 126.38 33.7883 126.929 32.5592V41.5052C125.263 42.1565 123.484 42.4907 121.689 42.4898C118.48 42.4898 116.624 41.2261 116.624 38.761C116.624 35.942 119.625 35.2796 122.412 34.6643Z" fill="#4D4D4F"/>
<path d="M158.53 27.7916C158.53 24.8846 157.12 23.2411 153.122 23.2411C151.31 23.2595 149.51 23.5203 147.771 24.0163V47.2031C147.771 47.2031 140.452 47.2031 140.452 43.6371V17.9308C142.031 18.6763 143.762 19.0684 145.517 19.0782C148.272 19.0782 150.869 17.9308 153.911 17.9308C159.709 17.9308 165.857 19.8456 165.857 26.9776V47.2031C165.857 47.2031 158.538 47.0945 158.538 43.6371L158.53 27.7916Z" fill="#4D4D4F"/>
<path d="M3.40637 2.57374C3.40637 2.57374 29.3294 0.697712 29.3294 22.6519C29.3294 44.6061 22.4772 49.0093 16.4706 50.3969C16.4706 50.3969 41.4532 56.2963 41.4532 25.4272C41.4532 -5.44201 9.59471 -1.00001 3.40637 2.57374Z" fill="#F1634C"/>
<path d="M24.5004 39.9005C24.5004 39.9005 22.003 48.4279 14.4395 49.5054C6.87593 50.583 5.46913 46.5596 0.213393 46.8387C0.0922846 45.7335 0.429413 44.6269 1.14889 43.7681C1.86838 42.9093 2.90975 42.3703 4.03862 42.2726C8.29854 41.7067 16.2809 42.8075 21.5841 39.5206C21.5841 39.5206 24.7454 37.9082 25.3382 37.1252L24.5004 39.9005Z" fill="#F1634C"/>
<path d="M3.01904 4.10868V14.6749V40.9703C3.27941 40.9045 3.54325 40.8528 3.80938 40.8153C5.30317 40.661 6.80436 40.5859 8.3064 40.5904C9.88707 40.5904 11.5784 40.5284 13.2855 40.3734V27.9699C13.2855 23.8457 13.0168 19.6363 13.2855 15.5199C13.5723 13.0339 15.24 10.9086 17.6166 10.0003C19.5137 9.31057 21.6205 9.44589 23.4097 10.3724C17.4694 6.20188 10.3235 4.00677 3.01904 4.10868Z" fill="#F1634C"/>
</svg>
