<svg width="13" height="24" viewBox="0 0 13 24" fill="none" xmlns="http://www.w3.org/2000/svg">
<path fill-rule="evenodd" clip-rule="evenodd" d="M12.5353 0.550223L9.56962 0.545456C6.23775 0.545456 4.08456 2.75836 4.08456 6.18341V8.78289H1.10268C0.84501 8.78289 0.636353 8.99214 0.636353 9.25026V13.0166C0.636353 13.2747 0.845248 13.4837 1.10268 13.4837H4.08456V22.9874C4.08456 23.2455 4.29322 23.4545 4.55089 23.4545H8.44139C8.69906 23.4545 8.90772 23.2453 8.90772 22.9874V13.4837H12.3942C12.6519 13.4837 12.8606 13.2747 12.8606 13.0166L12.862 9.25026C12.862 9.12632 12.8127 9.00764 12.7254 8.91993C12.6381 8.83222 12.5191 8.78289 12.3954 8.78289H8.90772V6.57928C8.90772 5.52014 9.15968 4.98246 10.537 4.98246L12.5348 4.98175C12.7923 4.98175 13.0009 4.77249 13.0009 4.51462V1.01735C13.0009 0.759715 12.7925 0.550699 12.5353 0.550223Z" fill="#3B5998"/>
</svg>
